Coordinates
version=1
nRows=7
nColumns=46
inDegrees=yes

Units are S.I. units (second, meters, Newtons, ...)
Angles are in degrees.

endheader
time	pelvis_tilt	pelvis_list	pelvis_rotation	pelvis_tx	pelvis_ty	pelvis_tz	bb_angle	bb_tx	bb_ty	bb_tz	hip_flexion_r	hip_adduction_r	hip_rotation_r	knee_angle_r	knee_angle_r_beta	ankle_angle_r	subtalar_angle_r	mtp_angle_r	crank_angle_r	hip_flexion_l	hip_adduction_l	hip_rotation_l	knee_angle_l	knee_angle_l_beta	ankle_angle_l	subtalar_angle_l	mtp_angle_l	crank_angle_l	lumbar_extension	lumbar_bending	lumbar_rotation	arm_flex_r	arm_add_r	arm_rot_r	elbow_flex_r	pro_sup_r	wrist_flex_r	wrist_dev_r	arm_flex_l	arm_add_l	arm_rot_l	elbow_flex_l	pro_sup_l	wrist_flex_l	wrist_dev_l
      2.50000000	    -22.88350577	      5.66999703	     -3.82649641	      0.34686804	      1.13703182	     -0.21799097	      0.00000000	      0.50000000	      0.00000000	      0.25000000	     45.63117897	     -4.03581475	      9.63815846	     38.79343639	      0.67707319	      1.45938745	     -9.22447544	      0.00000000	      0.00000000	     61.59812969	     -1.72903546	      2.51404542	     96.79612194	      1.68941103	    -13.66089849	     -2.67432032	      0.00000000	      0.00000000	    -53.24863180	     -0.71700327	     -7.06084220	     62.53783750	    -19.09162511	     49.00234531	     73.42376631	     58.37962710	      0.00000000	      0.00000000	     40.80857848	    -31.46144642	     10.42858300	     80.93214075	     52.94758097	      0.00000000	      0.00000000
      2.50500000	    -22.69847354	      6.14919648	     -3.36919843	      0.34755276	      1.13485736	     -0.21815860	      0.00000000	      0.50000000	      0.00000000	      0.25000000	     44.19763960	     -4.90462275	      9.54308704	     37.20682550	      0.64938161	      0.94271415	     -8.93495382	      0.00000000	      0.00000000	     63.05343704	     -1.47448056	      2.37217438	     98.71602626	      1.72291968	    -13.73748529	     -1.89217756	      0.00000000	      0.00000000	    -52.79268251	     -1.06124829	     -7.75111983	     61.91842464	    -19.00577135	     48.96789909	     72.97592114	     58.28700914	      0.00000000	      0.00000000	     40.80812679	    -31.49186376	     10.85887671	     80.58985945	     52.92967758	      0.00000000	      0.00000000
      2.51000000	    -22.72844246	      6.49475677	     -2.85866912	      0.34821265	      1.13266330	     -0.21831242	      0.00000000	      0.50000000	      0.00000000	      0.25000000	     42.91690052	     -5.67625308	      9.25520923	     35.56708285	      0.62076270	      0.30526062	     -8.70177834	      0.00000000	      0.00000000	     64.46881523	     -0.99700751	      2.23964075	    100.37385703	      1.75185429	    -13.30898566	     -2.05371255	      0.00000000	      0.00000000	    -52.11153015	     -1.37915767	     -8.36340666	     61.22590424	    -18.78061474	     48.70591972	     72.31480362	     58.11577145	      0.00000000	      0.00000000	     40.78632113	    -31.58355014	     11.55505717	     80.14552416	     52.91619439	      0.00000000	      0.00000000
      2.51500000	    -22.66347181	      7.11315940	     -2.24822714	      0.34884588	      1.13117481	     -0.21843070	      0.00000000	      0.50000000	      0.00000000	      0.25000000	     41.59561143	     -6.75488903	      8.97626590	     34.05693882	      0.59440572	     -0.29920897	     -8.62849497	      0.00000000	      0.00000000	     65.39564290	      0.13902582	      1.92650990	    101.62165139	      1.77363241	    -12.78795530	     -3.66209077	      0.00000000	      0.00000000	    -51.47056137	     -1.85752684	     -9.19262718	     60.14233333	    -17.30933170	     46.83694497	     70.22064735	     57.49962469	      0.00000000	      0.00000000	     41.76096654	    -32.38114155	     14.20069423	     78.42219684	     52.93014060	      0.00000000	      0.00000000
      2.52000000	    -22.78268183	      7.49239983	     -1.78821387	      0.34935161	      1.12949146	     -0.21837881	      0.00000000	      0.50000000	      0.00000000	      0.25000000	     40.41051420	     -7.50461201	      8.68472310	     32.49498532	      0.56714448	     -0.83615698	     -8.17820823	      0.00000000	      0.00000000	     66.77029636	      0.63898398	      1.84762442	    103.03394854	      1.79828164	    -12.18664208	     -3.84727796	      0.00000000	      0.00000000	    -50.83915388	     -2.25843756	     -9.80790060	     59.52899782	    -17.27414910	     46.61407729	     69.91594675	     57.39732122	      0.00000000	      0.00000000	     41.61382743	    -32.34827467	     14.55238949	     78.25110710	     52.92696972	      0.00000000	      0.00000000
      2.52500000	    -22.97089664	      7.83882638	     -1.36845286	      0.34977219	      1.12799519	     -0.21817055	      0.00000000	      0.50000000	      0.00000000	      0.25000000	     39.28414163	     -8.18406319	      8.34899486	     30.95559090	      0.54027698	     -1.27284283	     -7.73445238	      0.00000000	      0.00000000	     68.16936296	      0.97351339	      1.74266534	    104.32173486	      1.82075775	    -11.43017170	     -3.91819600	      0.00000000	      0.00000000	    -50.20789963	     -2.70153233	    -10.37688231	     59.04583515	    -17.23482085	     46.41887337	     69.57640854	     57.30987851	      0.00000000	      0.00000000	     41.58874356	    -32.37696595	     14.80610731	     78.14963144	     52.93102919	      0.00000000	      0.00000000
      2.53000000	    -23.12798331	      7.80627563	     -1.00117701	      0.35037075	      1.12671552	     -0.21763901	      0.00000000	      0.50000000	      0.00000000	      0.25000000	     37.96461545	     -8.43750095	      7.85183093	     29.24465795	      0.51041557	     -2.14936237	     -7.69493443	      0.00000000	      0.00000000	     69.65314768	      0.84811295	      2.16391380	    105.68687362	      1.84458392	    -10.37088342	     -2.34853639	      0.00000000	      0.00000000	    -49.43540094	     -2.90763200	    -10.80735151	     58.06232147	    -15.67240014	     44.64992549	     67.69006957	     56.76434639	      0.00000000	      0.00000000	     41.61509072	    -32.88721237	     16.05728009	     77.39959967	     52.94461748	      0.00000000	      0.00000000
